<svg width="13" height="791" viewBox="0 0 13 791" fill="none" xmlns="http://www.w3.org/2000/svg">
<path d="M6.00003 790.773L11.7735 785L6.00003 779.227L0.226531 785L6.00003 790.773ZM5 5L5.00003 785L7.00003 785L7 5L5 5Z" fill="black" fill-opacity="0.58"/>
<path d="M6.41667 571L11.9737 576.5H0.85967L6.41667 571Z" fill="black" fill-opacity="0.58"/>
<path d="M6.41668 582L0.85968 576.5H11.9737L6.41668 582Z" fill="black" fill-opacity="0.58"/>
<path d="M6.41667 235L11.9737 240.5H0.85967L6.41667 235Z" fill="black" fill-opacity="0.58"/>
<path d="M6.41668 246L0.85968 240.5H11.9737L6.41668 246Z" fill="black" fill-opacity="0.58"/>
<path d="M6.41667 0L11.9737 5.5H0.85967L6.41667 0Z" fill="black" fill-opacity="0.58"/>
<path d="M6.41668 11L0.85968 5.5L11.9737 5.5L6.41668 11Z" fill="black" fill-opacity="0.58"/>
</svg>
